<svg xmlns="http://www.w3.org/2000/svg" xmlns:xlink="http://www.w3.org/1999/xlink" width="62" height="62" viewBox="0 0 62 62">
    <defs>
        <path id="a" d="M0 .136h8.417v21.86H0z"/>
        <path id="c" d="M.134.136H8.55v21.86H.134z"/>
        <path id="e" d="M.092.136h8.417v21.86H.092z"/>
        <path id="g" d="M.049.136h8.417v21.86H.05z"/>
        <path id="i" d="M0 22.036h40.829V.176H0z"/>
    </defs>
    <g fill="none" fill-rule="evenodd">
        <circle cx="31" cy="31" r="30.5" fill="#FFF" stroke="#E5E5E5"/>
        <g transform="translate(11.5 19.5)">
            <g transform="translate(0 .04)">
                <mask id="b" fill="#fff">
                    <use xlink:href="#a"/>
                </mask>
                <path fill="#ED1C24" d="M7.504 21.996H.914A.916.916 0 0 1 0 21.083V1.049C0 .547.41.136.913.136h6.591c.503 0 .913.41.913.913v20.034c0 .502-.41.913-.913.913" mask="url(#b)"/>
            </g>
            <g transform="translate(10.206 .04)">
                <mask id="d" fill="#fff">
                    <use xlink:href="#c"/>
                </mask>
                <path fill="#ED1C24" d="M7.638 21.996H1.047a.916.916 0 0 1-.913-.913V1.049c0-.502.41-.913.913-.913h6.591c.502 0 .913.41.913.913v20.034c0 .502-.41.913-.913.913" mask="url(#d)"/>
            </g>
            <g transform="translate(20.588 .04)">
                <mask id="f" fill="#fff">
                    <use xlink:href="#e"/>
                </mask>
                <path fill="#ED1C24" d="M7.596 21.996H1.005a.916.916 0 0 1-.913-.913V1.049c0-.502.41-.913.913-.913h6.591c.502 0 .913.41.913.913v20.034c0 .502-.41.913-.913.913" mask="url(#f)"/>
            </g>
            <g transform="translate(30.97 .04)">
                <mask id="h" fill="#fff">
                    <use xlink:href="#g"/>
                </mask>
                <path fill="#ED1C24" d="M7.553 21.996H.962a.916.916 0 0 1-.913-.913V1.049c0-.502.41-.913.913-.913h6.591c.502 0 .913.41.913.913v20.034c0 .502-.41.913-.913.913" mask="url(#h)"/>
            </g>
            <path fill="#FFF" d="M4.678 15.176a.99.99 0 0 0-.725.302 1.028 1.028 0 0 0-.302.758c0 .304.1.56.302.766.2.206.443.31.725.31.283 0 .527-.104.734-.31a1.04 1.04 0 0 0 .31-.766c0-.304-.104-.557-.31-.758a1.017 1.017 0 0 0-.734-.302zm0 3.782c-.38 0-.733-.071-1.06-.212a2.71 2.71 0 0 1-1.646-2.51 2.707 2.707 0 0 1 1.646-2.494c.327-.142.68-.212 1.06-.212s.736.07 1.068.212c.331.14.62.334.864.578a2.713 2.713 0 0 1 .79 1.916 2.716 2.716 0 0 1-.79 1.932 2.716 2.716 0 0 1-1.932.79zM5.2 9.256v-3.26H2.266v-1.68h4.662v5.575H5.46v1.19h1.897v1.663H1.835v-1.663h1.898V9.256H5.2zM17.428 15.176a.99.99 0 0 0-.725.302 1.028 1.028 0 0 0-.302.758c0 .304.1.56.302.766.2.206.443.31.725.31.283 0 .527-.104.734-.31a1.04 1.04 0 0 0 .31-.766c0-.304-.104-.557-.31-.758a1.017 1.017 0 0 0-.734-.302zm-2.265-8.202l.016.13c0 .12-.008.228-.025.326a5.71 5.71 0 0 1-.057.293h1.451v-.75h-1.385zm-2.723-.962c-.282 0-.527.103-.733.31a1.06 1.06 0 0 0-.31.782c0 .304.103.56.31.766.206.207.45.31.733.31s.527-.103.734-.31c.206-.206.31-.462.31-.766 0-.315-.104-.576-.31-.782a1.003 1.003 0 0 0-.734-.31zm0 3.83c-.38 0-.736-.07-1.067-.211a2.735 2.735 0 0 1-1.671-2.527c0-.38.07-.739.212-1.076.141-.336.337-.627.587-.872.25-.244.54-.437.872-.578a2.697 2.697 0 0 1 1.067-.213c.49 0 .938.117 1.345.351.408.234.73.546.97.937v-.31h1.793V3.568h1.728v10.126a2.542 2.542 0 0 1 1.353.945c.347.468.522 1 .522 1.598a2.713 2.713 0 0 1-.79 1.932 2.714 2.714 0 0 1-1.933.79c-.38 0-.733-.071-1.06-.212a2.713 2.713 0 0 1-1.646-2.51c0-.598.169-1.125.506-1.581a2.67 2.67 0 0 1 1.32-.962v-4.34h-1.793v-.782a2.89 2.89 0 0 1-.978.921 2.61 2.61 0 0 1-1.337.35zM26.574 9.256l-.913-1.973-.961 1.973h.75v1.825h.521V9.256h.603zm-2.64.798l-1.158-.537 2.885-5.592 2.87 5.575-1.076.522v1.06h1.16v1.662H22.74v-1.663h1.194v-1.027z"/>
            <mask id="j" fill="#fff">
                <use xlink:href="#i"/>
            </mask>
            <path fill="#FFF" d="M32.971 8.212h.802v-2.2h-.802v2.2zm2.237 0v-2.2h.795V4.317h-5.278v1.695h.796v2.2h-.812v1.68h5.31v-1.68h-.811zM38.84 17.002c-.206.206-.45.31-.733.31a.977.977 0 0 1-.726-.31 1.054 1.054 0 0 1-.301-.766c0-.304.1-.557.301-.758a.99.99 0 0 1 .726-.302c.282 0 .527.1.733.302.207.2.31.454.31.758s-.103.56-.31.766m1.467-2.364a2.541 2.541 0 0 0-1.353-.945V3.567h-1.727v10.126a2.67 2.67 0 0 0-1.32.962 2.59 2.59 0 0 0-.506 1.58 2.713 2.713 0 0 0 1.647 2.51c.325.142.678.213 1.059.213a2.718 2.718 0 0 0 1.932-.79 2.719 2.719 0 0 0 .79-1.932c0-.598-.174-1.13-.522-1.598" mask="url(#j)"/>
        </g>
    </g>
</svg>
