<svg width="62" height="62" viewBox="0 0 62 62" fill="none" xmlns="http://www.w3.org/2000/svg">
<mask id="mask0" mask-type="alpha" maskUnits="userSpaceOnUse" x="0" y="0" width="62" height="62">
<path d="M31 62C48.1208 62 62 48.1208 62 31C62 13.8792 48.1208 0 31 0C13.8792 0 0 13.8792 0 31C0 48.1208 13.8792 62 31 62Z" fill="white"/>
</mask>
<g mask="url(#mask0)">
<path d="M31 61.5C47.8447 61.5 61.5 47.8447 61.5 31C61.5 14.1553 47.8447 0.5 31 0.5C14.1553 0.5 0.5 14.1553 0.5 31C0.5 47.8447 14.1553 61.5 31 61.5Z" fill="white" stroke="#E5E5E5"/>
<path fill-rule="evenodd" clip-rule="evenodd" d="M34.675 30.853L36.465 33.333C36.5351 33.4295 36.6267 33.5082 36.7326 33.5629C36.8385 33.6176 36.9558 33.6467 37.075 33.648L37.962 33.646L35.254 29.899H34.462C34.3426 29.8998 34.2251 29.9288 34.119 29.9837C34.013 30.0386 33.9215 30.1179 33.852 30.215L31.373 33.645H32.657L34.675 30.853V30.853ZM31.056 35.433H38.26V36.199H31.056V35.433Z" fill="#F37725"/>
<mask id="mask1" mask-type="alpha" maskUnits="userSpaceOnUse" x="9" y="27" width="7" height="11">
<path d="M9 27.918H15.446V37.258H9V27.918Z" fill="white"/>
</mask>
<g mask="url(#mask1)">
<path fill-rule="evenodd" clip-rule="evenodd" d="M12.997 31.602C12.242 31.248 11.621 30.963 11.621 30.386C11.621 29.944 11.975 29.624 12.673 29.624C12.929 29.624 13.139 29.654 13.355 29.694C13.469 29.713 13.59 29.73 13.69 29.73C14.3 29.73 14.643 29.366 14.872 28.677L14.967 28.396C14.869 28.356 13.874 27.918 12.576 27.918C10.511 27.918 9.42 29.243 9.421 30.618C9.421 31.31 9.639 31.811 9.978 32.208C10.416 32.716 11.04 33.049 11.623 33.334C12.474 33.752 13.243 34.06 13.243 34.68C13.243 35.228 12.675 35.54 11.917 35.54C10.877 35.54 9.969 34.946 9.854 34.875L9 36.475C9.152 36.559 10.251 37.258 12.06 37.258C13.986 37.256 15.446 36.152 15.446 34.451C15.446 32.76 14.093 32.133 12.997 31.601" fill="#E21837"/>
</g>
<path fill-rule="evenodd" clip-rule="evenodd" d="M20.536 32.392L24.03 28.106H21.54L18.752 31.805H18.71V28.105H16.658V37.185H16.78C17.668 37.185 18.724 36.775 18.724 35.292V33.207H18.766L21.608 37.073H24.221L20.536 32.392V32.392ZM24.147 18.378C23.425 18.515 22.352 19.171 22.357 20.331C22.359 21.385 23.22 22.023 23.223 23.403C23.227 24.443 22.656 25.141 22.036 25.529C22.286 25.507 22.56 25.493 22.862 25.492C23.2088 25.4866 23.5554 25.5077 23.899 25.555L27.141 21.575C26.324 20.3532 25.3126 19.2733 24.147 18.378V18.378ZM26.871 29.126C27.28 28.49 27.331 27.476 27.366 26.444C27.404 25.482 27.605 24.758 28.892 24.754C29.177 24.752 29.449 24.791 29.941 24.79C31.826 24.782 33.058 24.133 33.824 23.707C32.258 22.709 29.975 21.69 27.141 21.576C26.957 22.096 25.521 26.089 25.411 26.411C25.429 26.431 25.68 26.712 25.994 27.262C26.457 28.019 26.706 28.659 26.871 29.126" fill="#E21837"/>
<path fill-rule="evenodd" clip-rule="evenodd" d="M20.022 25.862C19.858 25.863 19.777 25.755 19.754 25.565C19.734 25.378 18.922 17.958 18.802 16.835C18.785 16.672 18.744 16.371 18.743 16.263C18.743 16.09 18.855 16 18.988 16C19.373 15.998 21.467 16.489 23.688 18.047C23.048 18.227 21.89 18.893 21.895 20.272C21.899 21.492 22.773 22.164 22.778 23.389C22.785 25.379 20.496 25.862 20.022 25.862ZM27.057 29.655C27.092 29.747 27.125 29.825 27.159 29.88C27.209 29.966 27.276 30.005 27.358 30.005C27.4221 30.0009 27.4847 29.9839 27.542 29.955C27.714 29.877 34.485 26.723 35.506 26.252C35.654 26.181 35.935 26.055 36.027 26.002C36.123 25.947 36.167 25.867 36.167 25.785C36.1662 25.7381 36.1523 25.6924 36.127 25.653C36 25.446 35.345 24.751 34.25 23.991C33.38 24.47 32.023 25.211 30.002 25.218C29.507 25.219 29.395 25.186 29.057 25.188C28.071 25.191 27.825 25.612 27.789 26.478C27.783 26.64 27.78 26.86 27.77 27.101C27.74 27.875 27.647 28.941 27.057 29.655ZM49.529 34.605C48.614 34.605 48.29 33.705 48.29 32.594C48.29 31.484 48.614 30.583 49.529 30.583C50.443 30.583 50.766 31.484 50.766 32.594C50.766 33.706 50.443 34.605 49.529 34.605ZM49.529 29.798C48.068 29.798 47.14 31.05 47.14 32.594C47.14 34.139 48.068 35.391 49.529 35.391C50.989 35.391 51.916 34.139 51.916 32.594C51.916 31.05 50.989 29.798 49.529 29.798Z" fill="#F37725"/>
<mask id="mask2" mask-type="alpha" maskUnits="userSpaceOnUse" x="52" y="29" width="3" height="9">
<path d="M52.782 29.899H54.742V37.078H52.782V29.899Z" fill="white"/>
</mask>
<g mask="url(#mask2)">
<path fill-rule="evenodd" clip-rule="evenodd" d="M54.742 31.788H53.874V29.899H52.782V37.078H53.072C53.514 37.078 53.874 36.718 53.874 36.274V32.556H54.742V31.788Z" fill="#F37725"/>
</g>
<path fill-rule="evenodd" clip-rule="evenodd" d="M43.391 35.433V34.361H45.817V33.595H40.975V32.32H45.551V31.552H40.975V30.665H45.551V29.9H40.685C40.4717 29.9 40.2671 29.9847 40.1161 30.1354C39.9652 30.2862 39.8803 30.4907 39.88 30.704V33.558C39.88 34.001 40.24 34.362 40.685 34.362H42.295V35.434H39.257V36.2H46.429V35.434H43.39L43.391 35.433Z" fill="#F37725"/>
</g>
</svg>
