<svg width="62" height="62" viewBox="0 0 62 62" fill="none" xmlns="http://www.w3.org/2000/svg">
<path d="M31 61.5C47.8447 61.5 61.5 47.8447 61.5 31C61.5 14.1553 47.8447 0.5 31 0.5C14.1553 0.5 0.5 14.1553 0.5 31C0.5 47.8447 14.1553 61.5 31 61.5Z" fill="#640FAF" stroke="#640FAF"/>
<path d="M33.0996 16.5841V17.321H35.0021C35.0021 17.321 35.0653 23.5638 34.9942 24.2177C34.9231 24.8716 34.7551 25.9365 33.5797 26.4956C32.5662 26.9776 32.5445 27.4339 32.4793 27.8389C32.3943 28.3644 32.4931 28.4316 32.8784 28.3368C34.3897 27.9674 35.9978 27.3648 36.8117 25.8792C37.2542 25.0731 37.4301 24.198 37.4301 22.8724V17.321C38.2361 17.3131 38.8169 16.8015 38.8169 16.1001V15.3613H34.441C33.6389 15.3613 33.0996 15.8532 33.0996 16.5841Z" fill="white"/>
<path d="M30.7883 22.9574C30.3734 22.9574 30.085 23.1312 29.7828 23.3169C29.356 23.5757 28.87 23.8701 27.8388 23.8701C26.1003 23.8701 24.6878 22.3765 24.6878 20.5393C24.6878 18.6625 26.1003 17.1373 27.8388 17.1373C28.7535 17.1373 29.2533 17.4436 29.6958 17.7162C30.0257 17.9177 30.3102 18.0935 30.6935 18.0935C31.4758 18.0935 32.2897 17.2262 32.2897 17.2262C32.2897 17.2262 30.7468 15.0511 27.8368 15.0511C24.7806 15.0511 22.4771 17.4119 22.4771 20.5412C22.4771 23.6291 24.7806 25.9582 27.8368 25.9582C30.8002 25.9582 32.3253 23.7812 32.3253 23.7812C32.3253 23.7812 31.6674 22.9574 30.7883 22.9574Z" fill="white"/>
<path d="M26.202 34.8375C27.0103 36.3879 28.5938 37.3166 30.4065 37.6605L31.2556 35.9391C28.7026 35.4242 27.2357 34.0953 27.2357 31.6666V31.006H25.1703V31.6666C25.1703 34.0953 23.7034 35.4242 21.1505 35.9391L21.9995 37.6605C23.8103 37.3166 25.3938 36.3879 26.202 34.8375Z" fill="white"/>
<path d="M41.0555 34.7637V30.8351H39.1592V38.1969C39.1592 38.1969 38.1975 38.5466 35.1976 38.5466C34.8479 38.5466 34.539 38.5466 34.267 38.5466V36.9864H37.6146L37.8808 35.0901H34.267V33.53H37.8788L38.145 31.6337H32.3726V40.4409C32.3726 40.4409 34.8479 40.4409 35.1976 40.4409C38.1975 40.4409 39.1592 40.0912 39.1592 40.0912V42.9978H41.0555V36.6581H42.4544L42.7206 34.7618H41.0555V34.7637Z" fill="white"/>
<path d="M31.1856 41.3869H21.2321V39.4906H31.4518L31.1856 41.3869Z" fill="white"/>
<path d="M48.9982 33.5708C48.9982 31.9679 47.6984 30.6681 46.0955 30.6681C44.4926 30.6681 43.1927 31.9679 43.1927 33.5708C43.1927 35.1737 44.4926 36.4735 46.0955 36.4735C47.6984 36.4735 48.9982 35.1737 48.9982 33.5708ZM44.8481 33.5708C44.8481 32.8811 45.4077 32.3215 46.0955 32.3215C46.7852 32.3215 47.3428 32.8811 47.3428 33.5708C47.3428 34.2605 46.7833 34.8182 46.0955 34.8182C45.4057 34.8182 44.8481 34.2605 44.8481 33.5708Z" fill="white"/>
<path d="M52 30.8351H50.1037V36.3899H52V30.8351Z" fill="white"/>
<path d="M44.1971 37.1086V38.764H50.1036V39.2322H44.1971V43.0151H51.9999V41.3578H46.0934V40.8896H51.9999V37.1086H44.1971Z" fill="white"/>
<path d="M20.4218 39.9706L20.688 38.0744H16.6584V37.3516C18.0242 36.8989 19.0093 35.6127 19.0093 34.0953C19.0093 32.2009 17.4744 30.666 15.5801 30.666C13.6857 30.666 12.1508 32.2009 12.1508 34.0953C12.1508 35.6127 13.1359 36.8989 14.5017 37.3516V38.0744H10V39.9706H11.8244V43.3863H19.5009L19.767 41.49H13.7207V39.9687H20.4218V39.9706ZM13.981 34.0972C13.981 33.2151 14.696 32.5001 15.5781 32.5001C16.4602 32.5001 17.1752 33.2151 17.1752 34.0972C17.1752 34.9793 16.4602 35.6943 15.5781 35.6943C14.696 35.6943 13.981 34.9793 13.981 34.0972Z" fill="white"/>
</svg>
