<svg xmlns="http://www.w3.org/2000/svg" width="62" height="62" viewBox="0 0 62 62">
    <g fill="none" fill-rule="evenodd">
        <circle cx="31" cy="31" r="30.5" fill="#FFF" stroke="#E5E5E5"/>
        <path fill="#9E1F62" d="M46.948 24.647l-.007-.01a.314.314 0 0 0-.246-.134l-.015-.002-.016.002h-7.127l-.014-.002-.014.002a.233.233 0 0 0-.175.369 42.17 42.17 0 0 0 4.084 6.116c.014.018.029.034.042.052a.274.274 0 0 0 .438-.076l.009-.018 3.065-5.997.003-.004a.315.315 0 0 0-.027-.299zm-5.345 10.262a46.013 46.013 0 0 1-6.757-10.202v-.002a.316.316 0 0 0-.28-.202l-.017-.002-.016.002h-6.869c-.01-.002-.017-.003-.026-.003-.01 0-.018.001-.028.003a.228.228 0 0 0-.2.225c0 .02.003.04.009.06l.02.05a52.505 52.505 0 0 0 3.291 6.605 53.024 53.024 0 0 0 7.45 9.816c.015.021.035.04.056.058a.273.273 0 0 0 .4-.062l.027-.053 2.996-5.862a.306.306 0 0 0 .04-.076.306.306 0 0 0-.03-.278.346.346 0 0 0-.066-.077zm-13.335.172a56.588 56.588 0 0 1-5.172-10.36l-.013-.037a.317.317 0 0 0-.273-.181l-.016-.002-.015.002h-6.524a.182.182 0 0 0-.027-.003.228.228 0 0 0-.228.228l.003.034c.004.026.012.05.024.07a63.315 63.315 0 0 0 8.256 16.336c.013.02.026.04.04.058a.288.288 0 0 0 .446-.029l.01-.02 3.488-5.702a.322.322 0 0 0 .03-.348l-.029-.046zm10.19 6.522h.055l-.037-.035-.018.035zm-13.939 0h.073l-.04-.052-.033.052z"/>
    </g>
</svg>
